<svg version="1.1" id="Layer_1" xmlns:x="ns_extend;" xmlns:i="ns_ai;" xmlns:graph="ns_graphs;" xmlns="http://www.w3.org/2000/svg" xmlns:xlink="http://www.w3.org/1999/xlink" x="0px" y="0px" viewBox="0 0 66.6 70.9" style="enable-background:new 0 0 66.6 70.9;" xml:space="preserve">
 <style type="text/css">
  .st0{fill:#FFFFFF;}
 </style>
 <metadata>
  <sfw xmlns="ns_sfw;">
   <slices>
   </slices>
   <sliceSourceBounds bottomLeftOrigin="true" height="70.9" width="66.6" x="0.1" y="0.1">
   </sliceSourceBounds>
  </sfw>
 </metadata>
 <desc>
  Created with Sketch.
 </desc>
 <g id="Page-1">
  <g id="Desktop-HD" transform="translate(-180.000000, -5891.000000)">
   <g id="tag" transform="translate(180.000000, 5891.000000)">
    <path class="st0" d="M27.9,32.1c-2.5,0-4.4,2.1-4.4,4.6c0,2.4,2,4.4,4.4,4.4c2.5,0,4.5-2.1,4.5-4.6
				C32.3,34.1,30.3,32.1,27.9,32.1z">
    </path>
    <path class="st0" d="M46,32c-2.5,0-4.5,2-4.5,4.5c0,2.5,2,4.6,4.5,4.6c2.5,0,4.5-2.1,4.5-4.6C50.5,34,48.5,32,46,32z">
    </path>
    <path class="st0" d="M63.1,22c-3.1,3.3-8,5.5-13.6,5.5c-0.2,0-0.3,0-0.4,0c-1.9,0-3.7-0.3-5.5-0.8l-6.1,2.6v3.1h-1.8v8.5h1.8v3.2
				h-5.3v-2c-1.1,1.6-2.8,2.4-4.7,2.4c-4.2,0-7.5-3.5-7.5-7.7c0-4.3,3.4-7.9,7.7-7.9c1.9,0,3.6,0.9,4.6,2.5v-2.1H34l0.4-0.8
				c0.7-1.4,2-5.4,0.4-7.6c-1.7-2.2-2.5-4.8-2.5-7.4c0.1-3.9,2.1-7.3,5.3-9.7c-1.4-0.2-2.8-0.3-4.2-0.3C14.9,3.4,0,18.5,0,37.1
				c0,18.6,14.9,33.7,33.3,33.7c18.4,0,33.3-15.1,33.3-33.7C66.6,31.7,65.4,26.5,63.1,22z M19.5,44.1h-6V32.3h-2.3v-3.2h2.3v-5h3.4
				v5h2.5v3.2h-2.5v8.5h2.7V44.1z M55.5,32.3h-1.9v9.7c0,2.3-0.2,4.1-1.8,5.8c-1.6,1.6-3.6,2.3-5.8,2.3c-3.1,0-6.3-1.5-7-4.8h3.9v0
				c0.6,1.3,2,1.8,3.3,1.8c1.2,0,2.4-0.5,3.1-1.4c0.9-1.1,1-2.1,1-3.5v-0.6c-1,1.7-2.7,2.5-4.7,2.5c-4.2,0-7.4-3.5-7.4-7.7
				c0-4.1,3.4-7.7,7.5-7.7c2,0,3.8,0.7,4.9,2.4v-2.2h5V32.3z">
    </path>
    <path class="st0" d="M49.6,1.2C58.4,1.3,65.4,7.1,65.2,14c0,2.5-1.1,4.9-2.7,6.8c0.2,0.4,0.4,0.7,0.6,1.1c2-2.2,3.3-4.9,3.3-7.9
				c0.1-3.7-1.7-7.2-4.9-9.9C58.3,1.6,54.1,0.1,49.6,0c-4.7-0.1-9,1.3-12.1,3.7c0.6,0.1,1.1,0.2,1.7,0.3C42.1,2.1,45.7,1.1,49.6,1.2
				z">
    </path>
    <path class="st0" d="M32.3,13.4c-0.1,2.6,0.8,5.1,2.5,7.4c1.7,2.2,0.3,6.2-0.4,7.6L34,29.2h3.5v0.1l6.1-2.6
				c1.8,0.5,3.6,0.8,5.5,0.8c0.1,0,0.3,0,0.4,0c5.6,0,10.5-2.1,13.6-5.5c-0.2-0.4-0.4-0.7-0.6-1.1c-2.9,3.4-7.8,5.5-13.4,5.4
				c-2,0-3.9-0.4-5.6-0.9l-8.1,3.5c0,0,2.7-5.6,0.2-8.9c-1.5-1.9-2.3-4.2-2.2-6.6c0.1-3.8,2.3-7.2,5.8-9.5c-0.6-0.1-1.1-0.2-1.7-0.3
				C34.4,6.1,32.4,9.5,32.3,13.4z">
    </path>
    <path class="st0" d="M49.6,1.2c-3.9-0.1-7.5,1-10.3,2.8C39.8,4,40.4,4.2,41,4.3c2.3-1.2,5.2-2,8.2-2c0.1,0,0.3,0,0.4,0
				c4,0.1,7.7,1.4,10.5,3.6c2.7,2.2,4.1,5.1,4.1,8c0,2.1-0.9,4.1-2.2,5.7c0.2,0.4,0.4,0.7,0.6,1.1c1.7-1.9,2.7-4.3,2.7-6.8
				C65.4,7.1,58.4,1.3,49.6,1.2z">
    </path>
    <path class="st0" d="M49.1,25.1c-1.8,0-3.6-0.3-5.3-0.9l-0.4-0.1l-6,2.6c0.6-2.2,0.9-5.2-0.8-7.4c-1.3-1.8-2-3.8-2-5.9
				c0.1-3.8,2.6-7.1,6.4-9.1c-0.6-0.1-1.1-0.3-1.7-0.4c-3.5,2.2-5.7,5.6-5.8,9.5c0,2.4,0.8,4.7,2.2,6.6c2.5,3.3-0.2,8.9-0.2,8.9
				l8.1-3.5c1.7,0.6,3.6,0.9,5.6,0.9c5.6,0.1,10.5-2.1,13.4-5.4c-0.2-0.4-0.4-0.7-0.6-1.1C59.2,23,54.5,25.2,49.1,25.1z">
    </path>
    <path class="st0" d="M44.7,15.6c1,0,1.7-0.8,1.7-1.8S45.6,12,44.7,12c-1,0-1.7,0.8-1.7,1.8S43.7,15.6,44.7,15.6z">
    </path>
    <path class="st0" d="M49.6,15.6c1,0,1.7-0.8,1.7-1.8S50.6,12,49.6,12c-1,0-1.7,0.8-1.7,1.8S48.7,15.6,49.6,15.6z">
    </path>
    <path class="st0" d="M54.6,15.6c1,0,1.7-0.8,1.7-1.8S55.6,12,54.6,12c-1,0-1.7,0.8-1.7,1.8S53.7,15.6,54.6,15.6z">
    </path>
   </g>
  </g>
 </g>
</svg>